<svg xmlns="http://www.w3.org/2000/svg" width="736.13" height="273.484" viewBox="0 0 736.13 273.484">
  <g id="Group_24" data-name="Group 24" transform="translate(-464.868 -494.444)">
    <path id="Path_13" data-name="Path 13" d="M-349.487-73.236l-16.058.085a77.69,77.69,0,0,1,.68-26.508l13.934-22.26a113.1,113.1,0,0,1,21.5-2.676,81.205,81.205,0,0,1,18.606,2.251q-1.444,48.938-2.039,98.979,2.209.34,4.418.765.51,5.607.552,12.022A56.451,56.451,0,0,1-308.96,1.189a190.092,190.092,0,0,0-46.049,1.529Q-359-7.986-357.218-22.09q4.248-.85,8.326-1.444Zm107.985-50.3q33.729-5.183,60.152-.51l15.973,46.3,16.907-45.794q33.729-5.183,60.237-.51a106.3,106.3,0,0,1,.722,12.064,45.086,45.086,0,0,1-1.4,11.895q-14.953-.935-29.821-.68l20.476,2.379-1.614,73.746q2.889.34,6.287.935a92.316,92.316,0,0,1,.807,12.022A42.056,42.056,0,0,1-94.264.17q-14.273-.85-22.982-.68A197.771,197.771,0,0,0-140.228,1.7q-5.268-10.79-2.889-24.979,3.4-.51,6.372-.935l-1.274-35.174L-150-15.378l-27.612,1.444L-191.29-59.728-192.9-24.639q2.889.34,6.287.935a87.907,87.907,0,0,1,.765,12.022A45.452,45.452,0,0,1-187.3.17q-14.273-.85-22.982-.68A197.771,197.771,0,0,0-233.26,1.7q-5.268-10.79-2.974-24.979A205.694,205.694,0,0,1-211.765-26L-230.2-28.037l-2.549-71.282q-2.974.34-6.032.765Q-243.71-109.345-241.5-123.533ZM-80.67-53.525Q-82.54-67.714-78.292-78.5a159.861,159.861,0,0,0,24.044,2.251q12.064.212,24.129-.722A54.012,54.012,0,0,1-28.972-65.08q-.042,6.457-.637,12.064a122.614,122.614,0,0,1-24.554,2.209l18.521,2.124L-37.17-22.515q1.614.255,3.313.51a90.74,90.74,0,0,1,.722,11.13A39.755,39.755,0,0,1-34.452,0q-13-.765-20.858-.595A191.646,191.646,0,0,0-76.167,1.359Q-80.925-8.5-78.8-21.58q3.144-.51,5.777-.85l-1.444-30.076Q-77.527-52.931-80.67-53.525Zm24.724-75.19a26,26,0,0,1,18.267,6.967,22.054,22.054,0,0,1,7.562,16.822A22.144,22.144,0,0,1-37.68-88.02a26,26,0,0,1-18.267,6.967A25.889,25.889,0,0,1-74.128-88.02a22.144,22.144,0,0,1-7.562-16.907,22.054,22.054,0,0,1,7.562-16.822A25.889,25.889,0,0,1-55.947-128.716Zm32.285,4.163q29.821-5.183,50.807-.425a120.03,120.03,0,0,1,.637,12.022A49.792,49.792,0,0,1,26.55-101.1,223.784,223.784,0,0,0,2.082-101.7l18.946,2.209.765,56.074q.085,6.882,4.248,6.627.51,5.607.807,18.054T26.041-.85Q-10.153,5.1-13.636-19.371l-2.889-80.883-4.758.68Q-25.616-110.364-23.662-124.553Zm58.368,0q29.821-5.183,50.807-.425a120.03,120.03,0,0,1,.637,12.022A49.792,49.792,0,0,1,84.918-101.1,223.784,223.784,0,0,0,60.45-101.7L79.4-99.489l.765,56.074q.085,6.882,4.248,6.627.51,5.607.807,18.054T84.409-.85Q48.215,5.1,44.732-19.371l-2.889-80.883-4.758.68Q32.752-110.364,34.707-124.553ZM93.33-53.525Q91.46-67.714,95.708-78.5a159.861,159.861,0,0,0,24.044,2.251q12.064.212,24.129-.722a54.012,54.012,0,0,1,1.147,11.895q-.042,6.457-.637,12.064a122.614,122.614,0,0,1-24.554,2.209l18.521,2.124L136.83-22.515q1.614.255,3.313.51a90.74,90.74,0,0,1,.722,11.13A39.755,39.755,0,0,1,139.548,0q-13-.765-20.858-.595A191.646,191.646,0,0,0,97.833,1.359Q93.075-8.5,95.2-21.58q3.144-.51,5.777-.85L99.532-52.506Q96.473-52.931,93.33-53.525Zm24.724-75.19a26,26,0,0,1,18.267,6.967,22.054,22.054,0,0,1,7.562,16.822A22.144,22.144,0,0,1,136.32-88.02a26,26,0,0,1-18.267,6.967A25.889,25.889,0,0,1,99.872-88.02a22.144,22.144,0,0,1-7.562-16.907,22.054,22.054,0,0,1,7.562-16.822A25.889,25.889,0,0,1,118.053-128.716ZM196.387.255q-18.012-1.614-28.8-12.022A54.109,54.109,0,0,1,152.76-37.3a75.034,75.034,0,0,1-1.7-30.756,64.606,64.606,0,0,1,10.663-27.655,41.281,41.281,0,0,1,22.217-16.355q13.891-4.333,33.007,3.229L213.8-93.287l1.4-2.506q1.4-2.506,3.356-5.9t3.653-6.415q1.7-3.016,2.379-4.291a40.267,40.267,0,0,1,20.73,18.437,67.874,67.874,0,0,1,8.369,29.609,74.934,74.934,0,0,1-4.885,31.69,53.05,53.05,0,0,1-18.861,24.6Q216.948,1.274,196.387.255Zm14.273-79.693a29.81,29.81,0,0,1-2.039,5.947q-9.346-4.673-14.911-1.912t-7.6,9.6a31.863,31.863,0,0,0-.807,14.4,24.893,24.893,0,0,0,5.565,12.574q4.333,5.013,11.555,4.078a16.822,16.822,0,0,0,11.725-7.986,32.2,32.2,0,0,0,4.5-14.528,36.867,36.867,0,0,0-1.529-14.443Q214.994-78.079,210.661-79.438Zm44.01-31.436q30.586-5.183,54.63-.51.255,2.294.425,4.843a44.747,44.747,0,0,1,10.408-5.353,26.924,26.924,0,0,1,10.833-1.614q8.411.425,15.123,8.666t9.9,27.357q3.186,19.116.892,52,2.209.34,4.673.765a94.043,94.043,0,0,1,.807,12.064,44.15,44.15,0,0,1-1.4,11.81q-13.849-.85-22.217-.637A204.211,204.211,0,0,0,316.522.68q-5.1-10.79-2.8-24.979a203.461,203.461,0,0,1,22.515-2.634l-18.437-.34q.085-12.319-.17-22.9a114.706,114.706,0,0,0-1.529-17.5q-1.274-6.924-4.248-8.2-3.738-1.784-11.385,9.176L298.68-25.658q2.634.425,5.692.935a106.3,106.3,0,0,1,.722,12.064A46.7,46.7,0,0,1,303.778-.85q-13-.85-20.9-.637A177.879,177.879,0,0,0,262.062.68q-4.843-10.79-2.634-24.979a184.568,184.568,0,0,1,19.711-2.549l-14.273-1.444L262.572-86.66q-2.719.34-5.437.765Q252.716-96.686,254.67-110.874Z" transform="matrix(0.998, -0.07, 0.07, 0.998, 839.331, 648.123)" fill="#fff"/>
    <path id="Path_14" data-name="Path 14" d="M-268.058,1.066a25.508,25.508,0,0,1-10.455-2.091,26.589,26.589,0,0,1-8.118-5.494,24.18,24.18,0,0,1-5.248-7.79,23.154,23.154,0,0,1-1.845-9.061V-57.646h13.038V-23.37a11.6,11.6,0,0,0,.943,4.592,12.726,12.726,0,0,0,2.624,3.936,12.642,12.642,0,0,0,4.018,2.747,12.415,12.415,0,0,0,5.043,1.025,12.333,12.333,0,0,0,5.084-1.025A13.132,13.132,0,0,0-259-14.8a12.235,12.235,0,0,0,2.624-3.895,11.8,11.8,0,0,0,.943-4.674V-57.646h13.038V-23.37a23.154,23.154,0,0,1-1.845,9.061,24.506,24.506,0,0,1-5.207,7.79,25.943,25.943,0,0,1-8.118,5.494A25.8,25.8,0,0,1-268.058,1.066Zm32.226-58.712h22.96a22.152,22.152,0,0,1,9.02,1.8,22.891,22.891,0,0,1,7.052,4.756,21.058,21.058,0,0,1,4.551,6.724,19.771,19.771,0,0,1,1.6,7.79,18.687,18.687,0,0,1-1.64,7.749,20.131,20.131,0,0,1-4.592,6.437A21.632,21.632,0,0,1-203.893-18a24.3,24.3,0,0,1-8.979,1.6h-9.922V0h-13.038Zm13.038,12.382v16.482h9.922a9.9,9.9,0,0,0,6.6-2.173,7,7,0,0,0,2.583-5.617,8.227,8.227,0,0,0-.7-3.321,8.636,8.636,0,0,0-1.927-2.788,9.22,9.22,0,0,0-2.911-1.886,9.433,9.433,0,0,0-3.649-.7Zm64.862-12.382h41.82v12.382h-28.864v10.578h23.862V-22.3h-23.862V0h-12.956ZM-84.05.984A31.254,31.254,0,0,1-96.842-1.558a31.94,31.94,0,0,1-9.881-6.724,29.807,29.807,0,0,1-6.4-9.594,28.533,28.533,0,0,1-2.255-11.07,28.234,28.234,0,0,1,2.255-11.029,30.409,30.409,0,0,1,6.4-9.594,31.584,31.584,0,0,1,9.881-6.765A31.254,31.254,0,0,1-84.05-58.876a31.543,31.543,0,0,1,12.833,2.542A31.811,31.811,0,0,1-61.3-49.61a30.375,30.375,0,0,1,6.437,9.594,28.094,28.094,0,0,1,2.3,11.07,28.094,28.094,0,0,1-2.3,11.07A30.375,30.375,0,0,1-61.3-8.282a31.811,31.811,0,0,1-9.922,6.724A31.543,31.543,0,0,1-84.05.984Zm-18.368-29.93a17.179,17.179,0,0,0,1.353,6.683,17.541,17.541,0,0,0,3.813,5.7,18.864,18.864,0,0,0,5.822,3.936,18.158,18.158,0,0,0,7.38,1.476,18.366,18.366,0,0,0,7.462-1.476,18.359,18.359,0,0,0,5.781-3.936,18,18,0,0,0,3.772-5.658,17.082,17.082,0,0,0,1.353-6.724,16.881,16.881,0,0,0-1.353-6.642,17.661,17.661,0,0,0-3.813-5.658,18.864,18.864,0,0,0-5.822-3.936,18.158,18.158,0,0,0-7.38-1.476,17.953,17.953,0,0,0-7.3,1.476,18.864,18.864,0,0,0-5.822,3.936,18.236,18.236,0,0,0-3.854,5.658A16.454,16.454,0,0,0-102.418-28.946Zm54.776-28.7h22.96a22.152,22.152,0,0,1,9.02,1.8A22.891,22.891,0,0,1-8.61-51.086a21.058,21.058,0,0,1,4.551,6.724,19.771,19.771,0,0,1,1.6,7.79,18.674,18.674,0,0,1-1.23,6.683,20.075,20.075,0,0,1-3.444,5.863,21.132,21.132,0,0,1-5.371,4.51A21.39,21.39,0,0,1-19.6-16.892,12.182,12.182,0,0,0-16.236-14.1a16.073,16.073,0,0,0,3.731,1.476,19.379,19.379,0,0,0,4.059.574q2.132.082,4.346.082h1.64V0h-5A32.888,32.888,0,0,1-15.7-1.025a33.649,33.649,0,0,1-7.5-2.911A34.533,34.533,0,0,1-29.684-8.4a28.049,28.049,0,0,1-5-5.7V0H-47.642Zm22.96,28.864a9.9,9.9,0,0,0,6.6-2.173A7,7,0,0,0-15.5-36.572a8.227,8.227,0,0,0-.7-3.321,8.636,8.636,0,0,0-1.927-2.788,9.22,9.22,0,0,0-2.911-1.886,9.433,9.433,0,0,0-3.649-.7h-10v16.482ZM59.942,0a33.409,33.409,0,0,1-12.71-2.337,30.92,30.92,0,0,1-9.881-6.314,28.52,28.52,0,0,1-6.437-9.225,27.321,27.321,0,0,1-2.3-11.07A26.246,26.246,0,0,1,31.16-40.467a29.118,29.118,0,0,1,6.765-9.1,31.08,31.08,0,0,1,9.758-5.945A31.78,31.78,0,0,1,59.2-57.646h16.81V-45.51H60.024A18.862,18.862,0,0,0,52.808-44.2a16.758,16.758,0,0,0-5.453,3.526,14.857,14.857,0,0,0-3.444,5.248,17.594,17.594,0,0,0-1.189,6.478,18.163,18.163,0,0,0,1.312,6.806,18.885,18.885,0,0,0,3.649,5.822,17.932,17.932,0,0,0,5.658,4.1,17.26,17.26,0,0,0,7.421,1.558h2.3V-22.386h-.574a47.722,47.722,0,0,1-6.232-.41,58.031,58.031,0,0,1-6.15-1.148l-1.148-.328V-36.818l2.378.984a28.028,28.028,0,0,0,11.4,2.378,27.986,27.986,0,0,0,5.658-.574,23.63,23.63,0,0,0,5.248-1.722L76.014-36.9V0ZM82.574-57.646h22.96a22.152,22.152,0,0,1,9.02,1.8,22.891,22.891,0,0,1,7.052,4.756,21.058,21.058,0,0,1,4.551,6.724,19.771,19.771,0,0,1,1.6,7.79,18.673,18.673,0,0,1-1.23,6.683,20.075,20.075,0,0,1-3.444,5.863,21.132,21.132,0,0,1-5.371,4.51,21.39,21.39,0,0,1-7.093,2.624A12.182,12.182,0,0,0,113.98-14.1a16.073,16.073,0,0,0,3.731,1.476,19.379,19.379,0,0,0,4.059.574q2.132.082,4.346.082h1.64V0h-5a32.888,32.888,0,0,1-8.241-1.025,33.649,33.649,0,0,1-7.5-2.911A34.533,34.533,0,0,1,100.532-8.4a28.05,28.05,0,0,1-5-5.7V0H82.574Zm22.96,28.864a9.9,9.9,0,0,0,6.6-2.173,7,7,0,0,0,2.583-5.617,8.227,8.227,0,0,0-.7-3.321,8.636,8.636,0,0,0-1.927-2.788,9.22,9.22,0,0,0-2.911-1.886,9.433,9.433,0,0,0-3.649-.7h-10v16.482ZM157.276-57.4H170.15L197.21,0H182.778a14.992,14.992,0,0,0-3.321-3.772,20.018,20.018,0,0,0-4.469-2.747A25.059,25.059,0,0,0,169.74-8.2a27.985,27.985,0,0,0-5.658-.574A28.2,28.2,0,0,0,153.3-6.642,20.465,20.465,0,0,0,144.648,0H130.216Zm-3.2,36.9a38.838,38.838,0,0,1,5.33-.943,50.517,50.517,0,0,1,5.33-.287,48.159,48.159,0,0,1,8.61,1.066L163.754-41Zm47.56-36.9h27.306a18.577,18.577,0,0,1,7.544,1.476,18.359,18.359,0,0,1,5.781,3.936,16.994,16.994,0,0,1,3.69,5.617,17.1,17.1,0,0,1,1.271,6.437A16.175,16.175,0,0,1,246.738-36a15.9,15.9,0,0,1-1.476,3.772,20.985,20.985,0,0,0-5.9-2.788,28.824,28.824,0,0,0-7.052-1.148.642.642,0,0,0,.123-.164.642.642,0,0,1,.123-.164l.082-.082a6.6,6.6,0,0,0,1.23-3.936,4.46,4.46,0,0,0-1.271-3.362,5.037,5.037,0,0,0-3.649-1.23h-14.35v32.8H232.88a5.073,5.073,0,0,0,3.69-1.353,4.643,4.643,0,0,0,1.394-3.485,4.643,4.643,0,0,0-1.394-3.485,5.073,5.073,0,0,0-3.69-1.353H218.53v-11.89h12.218a30.678,30.678,0,0,1,7.626.943,19.927,19.927,0,0,1,6.56,2.952,15.177,15.177,0,0,1,4.592,5.084,14.793,14.793,0,0,1,1.722,7.339,17.1,17.1,0,0,1-1.271,6.437,17.314,17.314,0,0,1-3.649,5.617,18.291,18.291,0,0,1-5.781,3.977A18.636,18.636,0,0,1,232.88,0H201.638Zm66.01,37.966v1.394a7.082,7.082,0,0,0,2.173,4.961,7.067,7.067,0,0,0,5.207,2.091,7.376,7.376,0,0,0,2.911-.574,7.293,7.293,0,0,0,2.337-1.558,6.977,6.977,0,0,0,1.517-2.255,6.823,6.823,0,0,0,.533-2.665,6.685,6.685,0,0,0-.574-2.706,7.419,7.419,0,0,0-1.558-2.3,7.293,7.293,0,0,0-2.337-1.558,7.376,7.376,0,0,0-2.911-.574h-.779a3.977,3.977,0,0,1-.779-.082,5.532,5.532,0,0,0-.656-.123q-.328-.041-.738-.123-7.216-1.312-11.152-5.781a15.643,15.643,0,0,1-3.936-10.7,16.445,16.445,0,0,1,1.23-6.232,16.828,16.828,0,0,1,3.526-5.412,17.381,17.381,0,0,1,5.535-3.813,17.94,17.94,0,0,1,7.339-1.435,17.52,17.52,0,0,1,7.175,1.435,17.727,17.727,0,0,1,5.535,3.772,17.055,17.055,0,0,1,3.567,5.33,15.493,15.493,0,0,1,1.271,6.109v1.394h-13.12V-42.23a4.424,4.424,0,0,0-1.271-3.2,4.218,4.218,0,0,0-3.157-1.312,4.45,4.45,0,0,0-3.28,1.312,4.352,4.352,0,0,0-1.312,3.2,6.159,6.159,0,0,0,1.271,3.813,3.972,3.972,0,0,0,3.321,1.681h1.148a21.021,21.021,0,0,1,8.323,1.558,19.076,19.076,0,0,1,6.191,4.141,17.421,17.421,0,0,1,3.854,5.945,19.226,19.226,0,0,1,1.312,7.052,18.033,18.033,0,0,1-1.476,7.093,19.693,19.693,0,0,1-4.141,6.191A20.808,20.808,0,0,1,283.31-.369a20.116,20.116,0,0,1-8.282,1.681,20.468,20.468,0,0,1-8.323-1.64,20.369,20.369,0,0,1-6.4-4.346,19.693,19.693,0,0,1-4.141-6.191,18.228,18.228,0,0,1-1.476-7.175v-1.394Z" transform="matrix(0.998, -0.07, 0.07, 0.998, 840.892, 746.131)" fill="#f4d407"/>
  </g>
</svg>
