<svg xmlns="http://www.w3.org/2000/svg" width="694.492" height="407.623" viewBox="0 0 694.492 407.623">
  <g id="Group_23" data-name="Group 23" transform="translate(-513.183 -491.258)">
    <path id="Path_10" data-name="Path 10" d="M-298.058-59.413q14.59-2.513,26.059-.243.284,2.675.3,5.755a24.156,24.156,0,0,1-.588,5.674q-1.7-.122-3.4-.2l-.324,8.794,8.227-9.6q-1.135-.122-2.27-.2a22.355,22.355,0,0,1,1.54-11.875,110.138,110.138,0,0,1,13.759,1.479,53.023,53.023,0,0,1,11.692,3.425,58.152,58.152,0,0,1-.993,6.039,25.457,25.457,0,0,1-1.885,5.755q-4.62-1.418-9.321-2.513l5.8,3.931-12.482,13.131,12.645,14.59q1.581-.446,3.161-.932a25.457,25.457,0,0,1,1.885,5.755,58.152,58.152,0,0,1,.993,6.039A53.023,53.023,0,0,1-254.958-1.2,110.138,110.138,0,0,1-268.717.284a22.294,22.294,0,0,1-1.54-11.875l2.27-.162-8.673-10.132-.365,9.6q1.256.2,2.715.446a50.708,50.708,0,0,1,.344,5.755,22.749,22.749,0,0,1-.628,5.674q-6.2-.446-9.949-.344A85.989,85.989,0,0,0-294.492.284a21.213,21.213,0,0,1-1.256-11.915,84.636,84.636,0,0,1,10.578-1.256l-7.984-.973L-294.249-47.9q-1.3.162-2.634.405A22.843,22.843,0,0,1-298.058-59.413ZM-191.35-1.3A86.1,86.1,0,0,1-205.068.223a39.176,39.176,0,0,1-11.692-1.4q-.081-1.094-.2-2.31a20.506,20.506,0,0,1-4.965,2.594,12.843,12.843,0,0,1-5.167.77q-4.012-.2-7.214-4.134t-4.721-13.05q-1.52-9.119-.426-24.843-1.054-.122-2.229-.324a42.671,42.671,0,0,1-.365-5.755,22.062,22.062,0,0,1,.689-5.674q6.565.446,10.578.344a96.2,96.2,0,0,0,10.578-1.033,19.92,19.92,0,0,1,1.337,11.915,114.423,114.423,0,0,1-11.672,1.216l9.767.2q-.041.729-.081,2.107-.122,3.242-.1,7.923a50.963,50.963,0,0,0,.689,8.511q.669,3.83,2.472,4.478t5.248-4.255l.851-19.534q-1.256-.2-2.715-.446a47.932,47.932,0,0,1-.324-5.755,23.37,23.37,0,0,1,.648-5.674q6.16.446,9.929.344a84.851,84.851,0,0,0,9.929-1.033,20.8,20.8,0,0,1,1.256,11.915q-5.876.973-9.4,1.216l7.538-.122.365,28.653q.405-.041.648-.081l.567-.081q.284-.041.729-.081A22.658,22.658,0,0,1-191.35-1.3Zm26.221-14.428a3.427,3.427,0,0,0-1.925-2.472,19.15,19.15,0,0,0-3.87-1.337q-1.743-.446-3.688-1.135a32.666,32.666,0,0,1-6.424-3.019,14.2,14.2,0,0,1-5.046-5.39q-1.945-3.506-1.864-9.423a14.175,14.175,0,0,1,4.053-9.483,20.9,20.9,0,0,1,9.564-5.613,23.091,23.091,0,0,1,11.875-.182l.324,9.443a41.726,41.726,0,0,0,1.094-4.823q.365-2.27.567-5.106A38.872,38.872,0,0,1-147.661-52a19.454,19.454,0,0,1,.689,10.659,29.148,29.148,0,0,1-3.485,8.673,26.07,26.07,0,0,1-7.518-.284,20.115,20.115,0,0,1-7.234-2.877q.77-1.662,1.418-3.4a6.98,6.98,0,0,0-3.181.446,5.739,5.739,0,0,0-2.472,1.6,1.447,1.447,0,0,0,.081,2.067q.912,1.074,4.478,1.885,10.74,2.432,15.1,7.619t3.3,11.044q-1.054,5.856-6.606,10.294t-14.63,5.35q-9.078.912-20.791-3.749-.892-2.513.02-7.234a17.144,17.144,0,0,1,3.546-7.883,74.438,74.438,0,0,0,7.862,3.465,21.6,21.6,0,0,0,6.484,1.56,8.492,8.492,0,0,0,4.154-.912Q-164.967-14.549-165.129-15.725Zm22.209,3.688q5.755-.973,9.2-1.216l-7.335-.608-.405-34.489-1.783.243a23.537,23.537,0,0,1-1.135-11.875q14.1-2.513,21.8-.243a45.157,45.157,0,0,1,.041,8.43q10.537-.689,15.218,2.675a23.24,23.24,0,0,1,7.335,8.734,35.728,35.728,0,0,1,3.3,12.786,69.63,69.63,0,0,1-.284,14.813A60.649,60.649,0,0,1-100.123.648l-18.4-2.594q.081-.324.162-.689.851-3.485,1.9-8.936a67.485,67.485,0,0,0,1.216-10.76q.162-5.309-1.6-8.389t-6.5-1.743l-1.094,19.737q1.378.2,2.958.486a50.708,50.708,0,0,1,.344,5.755,22.276,22.276,0,0,1-.628,5.633q-6.16-.405-9.929-.3a85.971,85.971,0,0,0-9.97,1.033A21.27,21.27,0,0,1-142.92-12.037Zm49.484-13.5A23.731,23.731,0,0,1-92.3-37.447a76.256,76.256,0,0,0,11.469,1.074q5.755.1,11.51-.344a25.764,25.764,0,0,1,.547,5.674q-.02,3.08-.3,5.755a58.488,58.488,0,0,1-11.712,1.054l8.835,1.013-.729,12.482q.77.122,1.581.243a43.284,43.284,0,0,1,.344,5.309A18.963,18.963,0,0,1-71.389,0q-6.2-.365-9.949-.284a91.417,91.417,0,0,0-9.949.932,18.032,18.032,0,0,1-1.256-10.942q1.5-.243,2.756-.405l-.689-14.347Q-91.936-25.249-93.436-25.532ZM-81.642-61.4a12.4,12.4,0,0,1,8.713,3.323,10.52,10.52,0,0,1,3.607,8.024,10.563,10.563,0,0,1-3.607,8.065,12.4,12.4,0,0,1-8.713,3.323,12.35,12.35,0,0,1-8.673-3.323,10.563,10.563,0,0,1-3.607-8.065,10.52,10.52,0,0,1,3.607-8.024A12.35,12.35,0,0,1-81.642-61.4ZM-66.2-52.078q14.549-2.513,26.019-.243.162,1.54.284,3.242a12.983,12.983,0,0,1,8-1.824q4.032.446,6.971,5.208t3.668,15.461l1.7.243a52.024,52.024,0,0,1,.324,5.269,26.5,26.5,0,0,1-.405,5.228,74.109,74.109,0,0,0-19.007,1.662,23.866,23.866,0,0,1-1.013-10.9,55.294,55.294,0,0,1,8.024-1.5l-7.011-.243q-.365-3.08-1.641-3.607t-2.553,1.277a12.351,12.351,0,0,0-1.682,5.735l-.122,2.31-.567,13.333,2.675.446a49.769,49.769,0,0,1,.344,5.735A22.367,22.367,0,0,1-42.817.405Q-49.018,0-52.767.081a78.452,78.452,0,0,0-9.949,1.054A21.27,21.27,0,0,1-63.972-10.78,89.436,89.436,0,0,1-54.53-12l-6.809-.729-1.094-27.8q-1.3.162-2.594.365A22.3,22.3,0,0,1-66.2-52.078Zm49.119,26.545a23.731,23.731,0,0,1,1.135-11.915A76.256,76.256,0,0,0-4.478-36.373q5.755.1,11.51-.344a25.764,25.764,0,0,1,.547,5.674q-.02,3.08-.3,5.755A58.488,58.488,0,0,1-4.438-24.235L4.4-23.222,3.668-10.74q.77.122,1.581.243a43.284,43.284,0,0,1,.344,5.309A18.963,18.963,0,0,1,4.965,0q-6.2-.365-9.949-.284a91.417,91.417,0,0,0-9.949.932,18.032,18.032,0,0,1-1.256-10.942q1.5-.243,2.756-.405l-.689-14.347Q-15.583-25.249-17.082-25.532ZM-5.289-61.4a12.4,12.4,0,0,1,8.713,3.323,10.52,10.52,0,0,1,3.607,8.024,10.563,10.563,0,0,1-3.607,8.065,12.4,12.4,0,0,1-8.713,3.323,12.35,12.35,0,0,1-8.673-3.323,10.563,10.563,0,0,1-3.607-8.065,10.52,10.52,0,0,1,3.607-8.024A12.35,12.35,0,0,1-5.289-61.4ZM9.949-59.413q14.59-2.472,26.019-.2a49.769,49.769,0,0,1,.344,5.735,23.752,23.752,0,0,1-.588,5.654q-1.7-.122-3.445-.2l-.243,7.376,9.97-13.333a27.352,27.352,0,0,1,8.875,3.951A22.365,22.365,0,0,1,56.84-44.3L44.722-29.544,59.6-6.93a16.3,16.3,0,0,1-6.728,5.471,21.455,21.455,0,0,1-9.2,2.472L31.226-18.8l-.243,6.565q1.256.2,2.715.446a50.708,50.708,0,0,1,.344,5.755,22.276,22.276,0,0,1-.628,5.633q-6.2-.405-9.97-.3A84.851,84.851,0,0,0,13.516.324,20.8,20.8,0,0,1,12.26-11.591a84.636,84.636,0,0,1,10.578-1.256L14.853-13.86l-1.094-34q-1.3.162-2.634.365A22.843,22.843,0,0,1,9.949-59.413ZM60.568-25.532A23.731,23.731,0,0,1,61.7-37.447a76.256,76.256,0,0,0,11.469,1.074q5.755.1,11.51-.344a25.764,25.764,0,0,1,.547,5.674q-.02,3.08-.3,5.755a58.488,58.488,0,0,1-11.712,1.054l8.835,1.013L81.318-10.74q.77.122,1.581.243a43.284,43.284,0,0,1,.344,5.309A18.963,18.963,0,0,1,82.615,0q-6.2-.365-9.949-.284a91.417,91.417,0,0,0-9.949.932A18.032,18.032,0,0,1,61.46-10.294q1.5-.243,2.756-.405l-.689-14.347Q62.068-25.249,60.568-25.532ZM72.362-61.4a12.4,12.4,0,0,1,8.713,3.323,10.52,10.52,0,0,1,3.607,8.024,10.563,10.563,0,0,1-3.607,8.065,12.4,12.4,0,0,1-8.713,3.323,12.35,12.35,0,0,1-8.673-3.323,10.563,10.563,0,0,1-3.607-8.065,10.52,10.52,0,0,1,3.607-8.024A12.35,12.35,0,0,1,72.362-61.4Zm44.418,1.986q14.59-2.472,26.019-.2a49.769,49.769,0,0,1,.344,5.735,23.752,23.752,0,0,1-.588,5.654q-1.7-.122-3.445-.2l-.243,7.376,9.97-13.333a27.352,27.352,0,0,1,8.875,3.951,22.365,22.365,0,0,1,5.958,6.14L151.552-29.544,166.426-6.93A16.3,16.3,0,0,1,159.7-1.459a21.455,21.455,0,0,1-9.2,2.472L138.056-18.8l-.243,6.565q1.256.2,2.715.446a50.708,50.708,0,0,1,.344,5.755,22.276,22.276,0,0,1-.628,5.633q-6.2-.405-9.97-.3A84.851,84.851,0,0,0,120.346.324a20.8,20.8,0,0,1-1.256-11.915,84.636,84.636,0,0,1,10.578-1.256l-7.984-1.013-1.094-34q-1.3.162-2.634.365A22.843,22.843,0,0,1,116.78-59.413Zm59.9,59.129-8.713-40.649,10.5-1.986a85.161,85.161,0,0,0-12.807.973,21.072,21.072,0,0,1-1.054-10.9q13.05-2.27,23.263-.2a48.6,48.6,0,0,1,.3,5.269,21.456,21.456,0,0,1-.547,5.188l-1.337-.081L190.3-23.708l4.58-25.532q10.78.729,21.4.811l5.471,24.641,4.336-17.467q-.851.081-1.743.2a25.749,25.749,0,0,1-.608-12.077q12.928-2.067,22.938.608a54.168,54.168,0,0,1,.1,5.816,28.628,28.628,0,0,1-.709,5.694l-1.864-.162L233.7-2.229A151.1,151.1,0,0,1,208.817-.041l-3.283-21.074L203.022-2.229A113.621,113.621,0,0,1,189.972-.75Q183.2-.365,176.679-.284ZM267.1-22.452q-3.566.689-4.417,2.573a3.679,3.679,0,0,0,.162,3.587,3.551,3.551,0,0,0,3,1.824,13.983,13.983,0,0,0,4.782-1.378,52.277,52.277,0,0,0,5.917-3.121v-.243q.081-.892.122-1.743a2.651,2.651,0,0,0-.284-.162,9.645,9.645,0,0,0-2.979-1.317A15.688,15.688,0,0,0,267.1-22.452ZM266.2-39.514q.081.648.2,1.418-3.323,1.135-7.376,2.229a42.2,42.2,0,0,1-7.579,1.378,20.653,20.653,0,0,1-2.492-7.052,33.844,33.844,0,0,1,.709-9.564q17.548-5.633,28.227-2.655t14.671,15.968Q296.559-24.8,294.046-.365L275.89-.648q0-5.025.2-12.726l-.466,2.047q-.466,2.047-1.094,4.884t-1.155,5.39q-9.321,2.391-15.948-.507a19.316,19.316,0,0,1-9.706-8.693A17.392,17.392,0,0,1,245.94-22.29a16.59,16.59,0,0,1,5.127-8.9,19.362,19.362,0,0,1,8.47-4.255,26.158,26.158,0,0,1,9.362-.446,20.949,20.949,0,0,1,7.842,2.533q-.608-4.215-3.526-5.856T266.2-39.514ZM-213.275,30.073q16.089-2.472,28.693-.243l7.619,22.087,8.065-21.844q16.089-2.472,28.734-.243a50.708,50.708,0,0,1,.344,5.755,21.507,21.507,0,0,1-.669,5.674q-7.133-.446-14.225-.324l9.767,1.135-.77,35.178q1.378.162,3,.446a44.035,44.035,0,0,1,.385,5.735,20.062,20.062,0,0,1-.709,5.654q-6.809-.405-10.963-.324a94.34,94.34,0,0,0-10.963,1.054A19.314,19.314,0,0,1-166.344,77.9q1.621-.243,3.04-.446l-.608-16.778-5.714,20.993-13.171.689-6.525-21.844-.77,16.738q1.378.162,3,.446a41.933,41.933,0,0,1,.365,5.735,21.681,21.681,0,0,1-.689,5.654q-6.809-.405-10.963-.324a94.34,94.34,0,0,0-10.963,1.054A19.506,19.506,0,0,1-210.762,77.9a98.118,98.118,0,0,1,11.672-1.3l-8.794-.973-1.216-34q-1.418.162-2.877.365A20.57,20.57,0,0,1-213.275,30.073ZM-96.516,35.22a37.806,37.806,0,0,1,.365,12.563,48.7,48.7,0,0,1-3.283,10.942q-3.931-.243-8.43-.871a48.466,48.466,0,0,1-8.146-1.8q1.054-4.782,1.7-8.632-2.594.041-5.106,3.019a18.613,18.613,0,0,0-3.668,7.194,12.652,12.652,0,0,0,.263,7.984q1.418,3.769,6.646,5.37t15.563-.588a18.9,18.9,0,0,1,1.864,5.289,33.127,33.127,0,0,1,.831,6.646q.061,3.222-1.033,4.6-13.982,3.364-23.2.729t-13.941-8.916a26.1,26.1,0,0,1-5.329-13.82,30.143,30.143,0,0,1,2.573-14.792,27.5,27.5,0,0,1,9.119-11.267,22.678,22.678,0,0,1,13.962-4.174l1.986,7.092q.122-1.945.061-3.647t-.3-4.174A45.857,45.857,0,0,1-96.516,35.22Zm4.62,41.743q5.755-.973,9.2-1.216l-7.335-.608-.405-34.489-1.783.243A23.537,23.537,0,0,1-93.355,29.02q14.1-2.513,21.8-.243a45.157,45.157,0,0,1,.041,8.43q10.537-.689,15.218,2.675a23.24,23.24,0,0,1,7.335,8.734,35.728,35.728,0,0,1,3.3,12.786,69.63,69.63,0,0,1-.284,14.813A60.649,60.649,0,0,1-49.1,89.648l-18.4-2.594q.081-.324.162-.689.851-3.485,1.9-8.936a67.485,67.485,0,0,0,1.216-10.76q.162-5.309-1.6-8.389t-6.5-1.743l-1.094,19.737q1.378.2,2.958.486a50.708,50.708,0,0,1,.344,5.755,22.276,22.276,0,0,1-.628,5.633q-6.16-.405-9.929-.3a85.97,85.97,0,0,0-9.97,1.033A21.27,21.27,0,0,1-91.9,76.963ZM1.479,38.908a38.471,38.471,0,0,1-.02,14.813A24.8,24.8,0,0,1-3.384,64.076a25.63,25.63,0,0,1-7.862,6.484l-9.848.041a21.929,21.929,0,0,0,9.342,1.033A45.127,45.127,0,0,0-1.52,69.425,18.9,18.9,0,0,1,.344,74.714a33.126,33.126,0,0,1,.831,6.646q.061,3.222-1.033,4.6-13.982,3.364-23.2.729T-37,77.774a26.1,26.1,0,0,1-5.329-13.82,30.143,30.143,0,0,1,2.573-14.792A27.5,27.5,0,0,1-30.639,37.9a22.678,22.678,0,0,1,13.962-4.174l1.986,7.092q.122-1.945.061-3.647t-.3-4.174a19.989,19.989,0,0,1,8.977,1.216A17.052,17.052,0,0,1,1.479,38.908ZM-23.972,62.536a16.432,16.432,0,0,0,6.343-6.4,25.784,25.784,0,0,0,2.411-9.686q-3.08,1.135-5.8,5.937A22.443,22.443,0,0,0-23.972,62.536ZM6.707,74.167q9.159-.932,15.238-1.337l-14.1-1.54L26.849,50.58q-2.513.081-5.269.243l-.486,3a90.612,90.612,0,0,1-14.1.041,51.384,51.384,0,0,1-.608-17.629,193.59,193.59,0,0,1,21.844-1.378,199.381,199.381,0,0,1,21.844,1.337,44.506,44.506,0,0,1,.729,7.417A18.654,18.654,0,0,1,49.585,50.9L31.875,72.546q2.188.041,4.458.162.324-.973.689-1.986a41.916,41.916,0,0,1,7.66.041,32.485,32.485,0,0,1,6.89,1.662A65.863,65.863,0,0,1,47.6,88.554q-8.47-.446-19.109-.223t-19.23.993Q4.64,82.8,6.707,74.167ZM73.983,89.122q-8.592-.77-13.739-5.735a25.811,25.811,0,0,1-7.072-12.178,35.792,35.792,0,0,1-.811-14.671,30.818,30.818,0,0,1,5.086-13.192,19.692,19.692,0,0,1,10.6-7.8q6.626-2.067,15.745,1.54l-1.5,7.417.669-1.2q.669-1.2,1.6-2.817t1.743-3.06q.811-1.439,1.135-2.047a19.208,19.208,0,0,1,9.889,8.794A32.377,32.377,0,0,1,101.318,58.3a35.744,35.744,0,0,1-2.33,15.117,25.306,25.306,0,0,1-9,11.733Q83.79,89.608,73.983,89.122Zm6.809-38.015a14.22,14.22,0,0,1-.973,2.837q-4.458-2.229-7.113-.912a7.06,7.06,0,0,0-3.627,4.58,15.2,15.2,0,0,0-.385,6.869,11.874,11.874,0,0,0,2.655,6,5.838,5.838,0,0,0,5.512,1.945,8.024,8.024,0,0,0,5.593-3.81,15.359,15.359,0,0,0,2.148-6.93,17.586,17.586,0,0,0-.729-6.89Q82.858,51.755,80.791,51.107Zm52.523-15q14.59-2.472,26.059-.243.122,1.094.2,2.31a21.345,21.345,0,0,1,4.965-2.553,12.843,12.843,0,0,1,5.167-.77q4.012.2,7.214,4.134t4.721,13.05q1.52,9.119.426,24.8,1.054.162,2.229.365a44.859,44.859,0,0,1,.385,5.755,21.06,21.06,0,0,1-.669,5.633q-6.606-.405-10.6-.3a97.41,97.41,0,0,0-10.6,1.033,19.92,19.92,0,0,1-1.337-11.915,97.052,97.052,0,0,1,10.74-1.256l-8.794-.162q.041-5.876-.081-10.922a54.716,54.716,0,0,0-.729-8.349q-.608-3.3-2.026-3.911-1.783-.851-5.431,4.377l-.851,19.575q1.256.2,2.715.446a50.708,50.708,0,0,1,.344,5.755,22.276,22.276,0,0,1-.628,5.633q-6.2-.405-9.97-.3a84.849,84.849,0,0,0-9.929,1.033,20.8,20.8,0,0,1-1.256-11.915,88.042,88.042,0,0,1,9.4-1.216l-6.809-.689-1.094-27.842q-1.3.162-2.594.365A22.843,22.843,0,0,1,133.315,36.112Zm53.9,27.356a23.731,23.731,0,0,1,1.135-11.915,76.256,76.256,0,0,0,11.469,1.074q5.755.1,11.51-.344a25.765,25.765,0,0,1,.547,5.674q-.02,3.08-.3,5.755a58.488,58.488,0,0,1-11.712,1.054l8.835,1.013-.729,12.482q.77.122,1.581.243a43.284,43.284,0,0,1,.344,5.309A18.963,18.963,0,0,1,209.263,89q-6.2-.365-9.949-.284a91.418,91.418,0,0,0-9.949.932,18.032,18.032,0,0,1-1.256-10.942q1.5-.243,2.756-.405l-.689-14.347Q188.716,63.751,187.216,63.468ZM199.01,27.6a12.4,12.4,0,0,1,8.713,3.323,10.775,10.775,0,0,1,0,16.089,13.032,13.032,0,0,1-17.386,0,10.775,10.775,0,0,1,0-16.089A12.35,12.35,0,0,1,199.01,27.6Z" transform="matrix(0.995, -0.105, 0.105, 0.995, 825.077, 583.158)" fill="#fff"/>
    <path id="Path_11" data-name="Path 11" d="M-293.445-63.5q-12.415,4.944-20.654,1.593a24.205,24.205,0,0,1-12.634-11.975,53.056,53.056,0,0,1-5.383-19.446,69.26,69.26,0,0,1,1.1-20.709q-2.307.11-4.614.33a58.5,58.5,0,0,1-1.373-17.688q.6-9.668,1.923-18.787.549-3.845.879-7.361,43.616-8.35,99.426,1.318,3.516,27.246-5.054,48.12a511.971,511.971,0,0,0-59.436-5.933,82.922,82.922,0,0,1,16.04,4.065,2.556,2.556,0,0,1-.439.659q-.549,1.1-.769,1.648a6.1,6.1,0,0,1-.385.824q-.165.275-.385.714-.33.659-1.318,2.527,20.764-3.076,33.4,1.7t18.787,14.337a50.609,50.609,0,0,1,7.69,20.709,74.988,74.988,0,0,1,.22,20.6,50.919,50.919,0,0,1-12.14,26.367Q-248.73-7.91-265.7-1.868T-305.09.659q-14.062,4.944-31.75.879-2.087-20.654-1.318-31.7A149.9,149.9,0,0,1-333.325-56.8a140.908,140.908,0,0,1,15.6.22,64.36,64.36,0,0,1,15.271,2.747q-1.758,12.3-2.417,20.325l3.186-9.119a38.382,38.382,0,0,0,11.865,2.747,14.039,14.039,0,0,0,10.657-5.328,19.25,19.25,0,0,0,4.5-10.876q.439-5.878-3.955-8.734T-293.445-63.5Zm136.78,65.149q-24.5-2.307-39.221-17.139a78.247,78.247,0,0,1-20.27-36.365,111.054,111.054,0,0,1-2.362-43.835q3.186-22.3,14.557-39.441a56.5,56.5,0,0,1,30.322-23.291q18.951-6.152,44.989,4.614l3.516-7.031a49.771,49.771,0,0,1,26.7,18.127A87.466,87.466,0,0,1-83-110.028a117.932,117.932,0,0,1,3.076,39.056A98.65,98.65,0,0,1-90.417-33.783,66.275,66.275,0,0,1-115.631-6.812Q-132.056,3.076-156.665,1.648Zm19.446-113.489a45.548,45.548,0,0,1-2.856,8.35q-13.293-7.69-21.313-5.273T-172.65-97.833A42.164,42.164,0,0,0-174.9-78.717a49.6,49.6,0,0,0,5.658,19.226q4.669,8.624,12.36,11.371Q-146.448-45.154-137-52.9t11.1-26.2a58.386,58.386,0,0,0-2.637-21.368Q-131.726-109.973-137.219-111.841Zm69.873-48.56q12.415-1.978,31.2-3.3a237.856,237.856,0,0,1,38.177.439q19.391,1.758,33.618,9.229a32.554,32.554,0,0,1,17.523,23.181,50.5,50.5,0,0,1-.879,20.27,56.085,56.085,0,0,1-8.734,19.666,32.9,32.9,0,0,1-15.656,12.36q16.7,3.625,25.214,13.623a31.994,31.994,0,0,1,8.075,22.522Q59.875-24.829,47.351-15.326T16.589-2.2A187.476,187.476,0,0,1-20.05,1.428q-18.4,0-31.256-1.318-6.152-14.832-3.3-33.948,4.614-.33,8.569-.549,9.009-.549,15.6-.989l-17.358-2.2-3.3-76.135q-5.054.549-10,1.208Q-71.631-133.374-67.346-160.4ZM-3.955-33.948A21,21,0,0,0,9.393-37.518q5.548-3.9,3.68-8.35t-16.26-5.548Zm-20.435-82.4L-.22-111.4-1.1-93.6a14.188,14.188,0,0,0,9.119-4.23q4.285-4.01,4.285-8.954t-8.185-8.02Q-4.065-117.883-24.39-116.345ZM123.376.33Q100.085-1.758,86.133-15.216A69.969,69.969,0,0,1,66.962-48.23,97.027,97.027,0,0,1,64.764-88a83.543,83.543,0,0,1,13.788-35.76,53.381,53.381,0,0,1,28.729-21.149q17.963-5.6,42.682,4.175l-4.065,20.1,1.813-3.241q1.813-3.241,4.34-7.635t4.724-8.295q2.2-3.9,3.076-5.548,17.249,6.812,26.807,23.84a87.769,87.769,0,0,1,10.822,38.287,96.9,96.9,0,0,1-6.317,40.979,68.6,68.6,0,0,1-24.39,31.805Q149.963,1.648,123.376.33Zm18.457-103.052a38.548,38.548,0,0,1-2.637,7.69q-12.085-6.042-19.281-2.472t-9.833,12.415a41.2,41.2,0,0,0-1.044,18.622,32.19,32.19,0,0,0,7.2,16.26q5.6,6.482,14.941,5.273a21.752,21.752,0,0,0,15.161-10.327,41.636,41.636,0,0,0,5.823-18.787,47.673,47.673,0,0,0-1.978-18.677Q147.437-100.964,141.833-102.722Zm56.25-60.205a216.329,216.329,0,0,1,37.079-3.351q17.194.055,22.028,2.032-.989,14.612-1.1,24.17,0,3.3-.11,6.042,33.289-2.637,53.064,10.986t20.984,46.472a82.4,82.4,0,0,1-6.812,34.5,57.617,57.617,0,0,1-22.906,26.971q-15.656,9.833-40.54,13.4T199.951-5.164q-2.747-23.4,3.516-41.089,21.753,5.383,37.134,3.845L209.509-48.34,206.653-131.4a5.092,5.092,0,0,1-.989.11q-1.208.22-2.087.33t-2.307.33Q195.557-144.58,198.083-162.927ZM251.917-44.275q15.161-.22,22.632-9.888t7.031-19.83q-.439-10.162-7.086-15.985t-19.171-4.285Z" transform="matrix(0.995, -0.105, 0.105, 0.995, 879.077, 850.158)" fill="#fff"/>
    <path id="Path_12" data-name="Path 12" d="M-293.445-63.5q-12.415,4.944-20.654,1.593a24.205,24.205,0,0,1-12.634-11.975,53.056,53.056,0,0,1-5.383-19.446,69.26,69.26,0,0,1,1.1-20.709q-2.307.11-4.614.33a58.5,58.5,0,0,1-1.373-17.688q.6-9.668,1.923-18.787.549-3.845.879-7.361,43.616-8.35,99.426,1.318,3.516,27.246-5.054,48.12a511.971,511.971,0,0,0-59.436-5.933,82.922,82.922,0,0,1,16.04,4.065,2.556,2.556,0,0,1-.439.659q-.549,1.1-.769,1.648a6.1,6.1,0,0,1-.385.824q-.165.275-.385.714-.33.659-1.318,2.527,20.764-3.076,33.4,1.7t18.787,14.337a50.609,50.609,0,0,1,7.69,20.709,74.988,74.988,0,0,1,.22,20.6,50.919,50.919,0,0,1-12.14,26.367Q-248.73-7.91-265.7-1.868T-305.09.659q-14.062,4.944-31.75.879-2.087-20.654-1.318-31.7A149.9,149.9,0,0,1-333.325-56.8a140.908,140.908,0,0,1,15.6.22,64.36,64.36,0,0,1,15.271,2.747q-1.758,12.3-2.417,20.325l3.186-9.119a38.382,38.382,0,0,0,11.865,2.747,14.039,14.039,0,0,0,10.657-5.328,19.25,19.25,0,0,0,4.5-10.876q.439-5.878-3.955-8.734T-293.445-63.5Zm136.78,65.149q-24.5-2.307-39.221-17.139a78.247,78.247,0,0,1-20.27-36.365,111.054,111.054,0,0,1-2.362-43.835q3.186-22.3,14.557-39.441a56.5,56.5,0,0,1,30.322-23.291q18.951-6.152,44.989,4.614l3.516-7.031a49.771,49.771,0,0,1,26.7,18.127A87.466,87.466,0,0,1-83-110.028a117.932,117.932,0,0,1,3.076,39.056A98.65,98.65,0,0,1-90.417-33.783,66.275,66.275,0,0,1-115.631-6.812Q-132.056,3.076-156.665,1.648Zm19.446-113.489a45.548,45.548,0,0,1-2.856,8.35q-13.293-7.69-21.313-5.273T-172.65-97.833A42.164,42.164,0,0,0-174.9-78.717a49.6,49.6,0,0,0,5.658,19.226q4.669,8.624,12.36,11.371Q-146.448-45.154-137-52.9t11.1-26.2a58.386,58.386,0,0,0-2.637-21.368Q-131.726-109.973-137.219-111.841Zm69.873-48.56q12.415-1.978,31.2-3.3a237.856,237.856,0,0,1,38.177.439q19.391,1.758,33.618,9.229a32.554,32.554,0,0,1,17.523,23.181,50.5,50.5,0,0,1-.879,20.27,56.085,56.085,0,0,1-8.734,19.666,32.9,32.9,0,0,1-15.656,12.36q16.7,3.625,25.214,13.623a31.994,31.994,0,0,1,8.075,22.522Q59.875-24.829,47.351-15.326T16.589-2.2A187.476,187.476,0,0,1-20.05,1.428q-18.4,0-31.256-1.318-6.152-14.832-3.3-33.948,4.614-.33,8.569-.549,9.009-.549,15.6-.989l-17.358-2.2-3.3-76.135q-5.054.549-10,1.208Q-71.631-133.374-67.346-160.4ZM-3.955-33.948A21,21,0,0,0,9.393-37.518q5.548-3.9,3.68-8.35t-16.26-5.548Zm-20.435-82.4L-.22-111.4-1.1-93.6a14.188,14.188,0,0,0,9.119-4.23q4.285-4.01,4.285-8.954t-8.185-8.02Q-4.065-117.883-24.39-116.345ZM123.376.33Q100.085-1.758,86.133-15.216A69.969,69.969,0,0,1,66.962-48.23,97.027,97.027,0,0,1,64.764-88a83.543,83.543,0,0,1,13.788-35.76,53.381,53.381,0,0,1,28.729-21.149q17.963-5.6,42.682,4.175l-4.065,20.1,1.813-3.241q1.813-3.241,4.34-7.635t4.724-8.295q2.2-3.9,3.076-5.548,17.249,6.812,26.807,23.84a87.769,87.769,0,0,1,10.822,38.287,96.9,96.9,0,0,1-6.317,40.979,68.6,68.6,0,0,1-24.39,31.805Q149.963,1.648,123.376.33Zm18.457-103.052a38.548,38.548,0,0,1-2.637,7.69q-12.085-6.042-19.281-2.472t-9.833,12.415a41.2,41.2,0,0,0-1.044,18.622,32.19,32.19,0,0,0,7.2,16.26q5.6,6.482,14.941,5.273a21.752,21.752,0,0,0,15.161-10.327,41.636,41.636,0,0,0,5.823-18.787,47.673,47.673,0,0,0-1.978-18.677Q147.437-100.964,141.833-102.722Zm56.25-60.205a216.329,216.329,0,0,1,37.079-3.351q17.194.055,22.028,2.032-.989,14.612-1.1,24.17,0,3.3-.11,6.042,33.289-2.637,53.064,10.986t20.984,46.472a82.4,82.4,0,0,1-6.812,34.5,57.617,57.617,0,0,1-22.906,26.971q-15.656,9.833-40.54,13.4T199.951-5.164q-2.747-23.4,3.516-41.089,21.753,5.383,37.134,3.845L209.509-48.34,206.653-131.4a5.092,5.092,0,0,1-.989.11q-1.208.22-2.087.33t-2.307.33Q195.557-144.58,198.083-162.927ZM251.917-44.275q15.161-.22,22.632-9.888t7.031-19.83q-.439-10.162-7.086-15.985t-19.171-4.285Z" transform="matrix(0.995, -0.105, 0.105, 0.995, 870.077, 854.158)" fill="#eea11f"/>
    <path id="Path_9" data-name="Path 9" d="M-293.445-63.5q-12.415,4.944-20.654,1.593a24.205,24.205,0,0,1-12.634-11.975,53.056,53.056,0,0,1-5.383-19.446,69.26,69.26,0,0,1,1.1-20.709q-2.307.11-4.614.33a58.5,58.5,0,0,1-1.373-17.688q.6-9.668,1.923-18.787.549-3.845.879-7.361,43.616-8.35,99.426,1.318,3.516,27.246-5.054,48.12a511.971,511.971,0,0,0-59.436-5.933,82.922,82.922,0,0,1,16.04,4.065,2.556,2.556,0,0,1-.439.659q-.549,1.1-.769,1.648a6.1,6.1,0,0,1-.385.824q-.165.275-.385.714-.33.659-1.318,2.527,20.764-3.076,33.4,1.7t18.787,14.337a50.609,50.609,0,0,1,7.69,20.709,74.988,74.988,0,0,1,.22,20.6,50.919,50.919,0,0,1-12.14,26.367Q-248.73-7.91-265.7-1.868T-305.09.659q-14.062,4.944-31.75.879-2.087-20.654-1.318-31.7A149.9,149.9,0,0,1-333.325-56.8a140.908,140.908,0,0,1,15.6.22,64.36,64.36,0,0,1,15.271,2.747q-1.758,12.3-2.417,20.325l3.186-9.119a38.382,38.382,0,0,0,11.865,2.747,14.039,14.039,0,0,0,10.657-5.328,19.25,19.25,0,0,0,4.5-10.876q.439-5.878-3.955-8.734T-293.445-63.5Zm136.78,65.149q-24.5-2.307-39.221-17.139a78.247,78.247,0,0,1-20.27-36.365,111.054,111.054,0,0,1-2.362-43.835q3.186-22.3,14.557-39.441a56.5,56.5,0,0,1,30.322-23.291q18.951-6.152,44.989,4.614l3.516-7.031a49.771,49.771,0,0,1,26.7,18.127A87.466,87.466,0,0,1-83-110.028a117.932,117.932,0,0,1,3.076,39.056A98.65,98.65,0,0,1-90.417-33.783,66.275,66.275,0,0,1-115.631-6.812Q-132.056,3.076-156.665,1.648Zm19.446-113.489a45.548,45.548,0,0,1-2.856,8.35q-13.293-7.69-21.313-5.273T-172.65-97.833A42.164,42.164,0,0,0-174.9-78.717a49.6,49.6,0,0,0,5.658,19.226q4.669,8.624,12.36,11.371Q-146.448-45.154-137-52.9t11.1-26.2a58.386,58.386,0,0,0-2.637-21.368Q-131.726-109.973-137.219-111.841Zm69.873-48.56q12.415-1.978,31.2-3.3a237.856,237.856,0,0,1,38.177.439q19.391,1.758,33.618,9.229a32.554,32.554,0,0,1,17.523,23.181,50.5,50.5,0,0,1-.879,20.27,56.085,56.085,0,0,1-8.734,19.666,32.9,32.9,0,0,1-15.656,12.36q16.7,3.625,25.214,13.623a31.994,31.994,0,0,1,8.075,22.522Q59.875-24.829,47.351-15.326T16.589-2.2A187.476,187.476,0,0,1-20.05,1.428q-18.4,0-31.256-1.318-6.152-14.832-3.3-33.948,4.614-.33,8.569-.549,9.009-.549,15.6-.989l-17.358-2.2-3.3-76.135q-5.054.549-10,1.208Q-71.631-133.374-67.346-160.4ZM-3.955-33.948A21,21,0,0,0,9.393-37.518q5.548-3.9,3.68-8.35t-16.26-5.548Zm-20.435-82.4L-.22-111.4-1.1-93.6a14.188,14.188,0,0,0,9.119-4.23q4.285-4.01,4.285-8.954t-8.185-8.02Q-4.065-117.883-24.39-116.345ZM123.376.33Q100.085-1.758,86.133-15.216A69.969,69.969,0,0,1,66.962-48.23,97.027,97.027,0,0,1,64.764-88a83.543,83.543,0,0,1,13.788-35.76,53.381,53.381,0,0,1,28.729-21.149q17.963-5.6,42.682,4.175l-4.065,20.1,1.813-3.241q1.813-3.241,4.34-7.635t4.724-8.295q2.2-3.9,3.076-5.548,17.249,6.812,26.807,23.84a87.769,87.769,0,0,1,10.822,38.287,96.9,96.9,0,0,1-6.317,40.979,68.6,68.6,0,0,1-24.39,31.805Q149.963,1.648,123.376.33Zm18.457-103.052a38.548,38.548,0,0,1-2.637,7.69q-12.085-6.042-19.281-2.472t-9.833,12.415a41.2,41.2,0,0,0-1.044,18.622,32.19,32.19,0,0,0,7.2,16.26q5.6,6.482,14.941,5.273a21.752,21.752,0,0,0,15.161-10.327,41.636,41.636,0,0,0,5.823-18.787,47.673,47.673,0,0,0-1.978-18.677Q147.437-100.964,141.833-102.722Zm56.25-60.205a216.329,216.329,0,0,1,37.079-3.351q17.194.055,22.028,2.032-.989,14.612-1.1,24.17,0,3.3-.11,6.042,33.289-2.637,53.064,10.986t20.984,46.472a82.4,82.4,0,0,1-6.812,34.5,57.617,57.617,0,0,1-22.906,26.971q-15.656,9.833-40.54,13.4T199.951-5.164q-2.747-23.4,3.516-41.089,21.753,5.383,37.134,3.845L209.509-48.34,206.653-131.4a5.092,5.092,0,0,1-.989.11q-1.208.22-2.087.33t-2.307.33Q195.557-144.58,198.083-162.927ZM251.917-44.275q15.161-.22,22.632-9.888t7.031-19.83q-.439-10.162-7.086-15.985t-19.171-4.285Z" transform="matrix(0.995, -0.105, 0.105, 0.995, 867.077, 860.158)" fill="#eb7923"/>
  </g>
</svg>
